<?xml version="1.0" encoding="UTF-8" standalone="no"?>
<!-- Created with Inkscape (http://www.inkscape.org/) -->

<svg
   xmlns:dc="http://purl.org/dc/elements/1.1/"
   xmlns:cc="http://creativecommons.org/ns#"
   xmlns:rdf="http://www.w3.org/1999/02/22-rdf-syntax-ns#"
   xmlns:svg="http://www.w3.org/2000/svg"
   xmlns="http://www.w3.org/2000/svg"
   xmlns:sodipodi="http://sodipodi.sourceforge.net/DTD/sodipodi-0.dtd"
   xmlns:inkscape="http://www.inkscape.org/namespaces/inkscape"
   width="130.175mm"
   height="110.77222mm"
   viewBox="0 0 130.175 110.77222"
   version="1.1"
   id="svg8"
   inkscape:version="0.92.2 (5c3e80d, 2017-08-06)"
   sodipodi:docname="gripper-opened.svg">
  <title
     id="title3721">gripper-opened</title>
  <defs
     id="defs2" />
  <sodipodi:namedview
     id="base"
     pagecolor="#ffffff"
     bordercolor="#666666"
     borderopacity="1.0"
     inkscape:pageopacity="0.0"
     inkscape:pageshadow="2"
     inkscape:zoom="0.9899495"
     inkscape:cx="-59.963497"
     inkscape:cy="204.51275"
     inkscape:document-units="mm"
     inkscape:current-layer="g833"
     showgrid="false"
     inkscape:window-width="1600"
     inkscape:window-height="838"
     inkscape:window-x="-8"
     inkscape:window-y="-8"
     inkscape:window-maximized="1"
     fit-margin-top="0"
     fit-margin-left="0"
     fit-margin-right="0"
     fit-margin-bottom="0" />
  <metadata
     id="metadata5">
    <rdf:RDF>
      <cc:Work
         rdf:about="">
        <dc:format>image/svg+xml</dc:format>
        <dc:type
           rdf:resource="http://purl.org/dc/dcmitype/StillImage" />
        <dc:title>gripper-opened</dc:title>
      </cc:Work>
    </rdf:RDF>
  </metadata>
  <g
     inkscape:label="Layer 1"
     inkscape:groupmode="layer"
     id="layer1"
     transform="translate(6.174397,-74.596089)">
    <g
       id="g833"
       transform="translate(-37.43018,15.465966)"
       style="display:inline">
      <path
         style="fill:#fcfbff;fill-opacity:0;stroke-width:0.35277778"
         d="M 31.255783,114.51623 V 59.130123 h 65.0875 65.087497 v 55.386107 55.38611 h -65.087497 -65.0875 z"
         id="path841"
         inkscape:connector-curvature="0" />
      <path
         style="fill:#514c4b;stroke-width:0.35277778"
         d="m 48.997113,150.62616 c -0.426872,-0.36067 -1.241556,-1.84639 -1.810408,-3.30159 -1.917264,-4.90465 -7.464255,-20.71519 -7.464255,-21.2753 0,-0.3054 0.15875,-0.6534 0.352777,-0.77331 0.606825,-0.37504 0.387784,-1.33597 -0.520678,-2.2842 -0.796774,-0.83165 -0.999521,-1.77795 -2.309433,-10.77902 -1.08938,-7.4857 -1.346875,-10.06293 -1.066821,-10.67769 0.203035,-0.44569 0.369155,-1.668189 0.369155,-2.716662 0,-2.83591 0.630672,-5.259587 1.782288,-6.849347 1.250253,-1.725924 2.196757,-2.369039 4.958249,-3.368951 1.385257,-0.50159 2.273574,-1.057028 2.544545,-1.591028 0.366086,-0.721442 2.097307,-1.281631 14.351029,-4.643711 7.664097,-2.102815 14.438023,-3.825359 15.053165,-3.827875 1.042261,-0.0043 1.329761,-0.322969 4.220729,-4.678881 1.706259,-2.570868 3.86202,-5.746442 4.790584,-7.056831 1.627982,-2.297407 1.6883,-2.470705 1.6883,-4.850695 v -2.468168 h 10.936111 10.93611 v 2.266013 c 0,2.181199 0.0759,2.376495 2.02847,5.217835 6.75629,9.831717 7.26643,10.493617 8.35271,10.837582 0.59625,0.188801 7.27535,1.635684 14.84243,3.215297 13.15439,2.745951 14.32216,3.085306 14.71957,4.277534 0.0576,0.172813 1.04529,0.55982 2.19486,0.860014 4.52372,1.181308 6.83622,4.106367 7.16118,9.05813 0.0918,1.399191 0.38356,2.889278 0.6483,3.31131 0.41139,0.655803 0.35386,2.245214 -0.39583,10.936114 -0.75918,8.801 -0.96459,10.23996 -1.52717,10.69795 -0.95167,0.77475 -1.15315,1.66541 -0.51997,2.29859 0.71411,0.71411 0.71197,0.72394 -2.70071,12.42483 -3.45513,11.84647 -4.10909,13.5627 -5.29273,13.89009 -1.5157,0.41923 -4.1732,0.34385 -4.46726,-0.12671 -0.15157,-0.24253 -0.24159,-1.39347 -0.20006,-2.55764 0.10588,-2.96826 -0.2148,-5.00811 -0.89412,-5.68743 -0.72894,-0.72894 -1.31255,-8.83659 -0.69064,-9.59465 0.58873,-0.71762 0.34013,-11.02972 -0.27747,-11.50975 -0.37058,-0.28803 -0.50394,-2.10796 -0.59054,-8.05852 -0.11077,-7.61182 -0.11949,-7.68841 -0.89822,-7.8857 -0.4325,-0.10957 -6.09634,-0.0223 -12.58632,0.19399 -8.55548,0.2851 -12.03312,0.28698 -12.64797,0.007 -0.65951,-0.30049 -1.1553,-0.25742 -2.23035,0.19375 -1.20613,0.50618 -3.09969,0.57594 -14.856077,0.54734 -8.822122,-0.0215 -13.85884,-0.16703 -14.589185,-0.42162 -0.813876,-0.28372 -1.606109,-0.28291 -2.930416,0.003 -0.998237,0.21552 -6.865062,0.5631 -13.03738,0.7724 -6.17232,0.20931 -11.425568,0.45852 -11.673885,0.55381 -0.354544,0.13605 -0.417533,1.8335 -0.293361,7.90559 0.140826,6.88642 0.09366,7.79679 -0.43114,8.32159 -0.519268,0.51927 -0.560457,1.18077 -0.346751,5.56877 0.166789,3.42467 0.394086,5.1534 0.727941,5.53644 0.630414,0.72329 0.686238,8.81953 0.06868,9.96139 -0.22921,0.4238 -0.44637,2.40323 -0.482579,4.39874 -0.03621,1.99549 -0.13462,3.69696 -0.218692,3.78103 -0.08407,0.0841 -1.018607,0.25461 -2.076746,0.37897 -1.579819,0.18568 -2.062692,0.10884 -2.70002,-0.42964 z M 92.528185,99.638074 c 0.449069,-0.42188 0.810035,-1.096567 0.80215,-1.499306 -0.01245,-0.635543 -0.152224,-0.570939 -1.058333,0.489141 -1.524011,1.782971 -1.339766,2.509481 0.256183,1.010165 z"
         id="path839"
         inkscape:connector-curvature="0" />
      <path
         style="fill:#d00d01;stroke-width:0.35277778"
         d="m 48.997113,150.62616 c -0.426872,-0.36067 -1.241556,-1.84639 -1.810408,-3.30159 -1.50867,-3.85941 -7.464255,-20.66136 -7.464255,-21.05823 0,-0.18603 0.383443,-0.69846 0.852097,-1.13874 0.468653,-0.44027 0.955458,-1.21232 1.081789,-1.71566 1.133533,-4.51636 7.247331,-5.3248 9.636505,-1.27426 0.662872,1.12382 0.77894,1.72302 0.636639,3.28665 -0.148063,1.62693 -0.05392,2.055 0.630924,2.86889 0.787036,0.93535 0.810038,1.19458 1.033332,11.64601 0.125608,5.87916 0.183133,10.73462 0.127832,10.78992 -0.0553,0.0553 -0.966296,0.2023 -2.024435,0.32666 -1.579819,0.18568 -2.062692,0.10884 -2.70002,-0.42965 z m -0.155444,-23.24307 c 2.054043,-1.72837 1.616776,-4.63576 -0.852372,-5.66744 -1.029813,-0.43028 -1.383067,-0.4343 -2.35782,-0.0268 -1.602731,0.66995 -2.188825,1.51038 -2.188825,3.13866 0,1.13654 0.217054,1.59659 1.144075,2.42488 1.433617,1.28094 2.836782,1.32406 4.254942,0.13075 z m 94.074381,21.36245 c -0.14677,-0.23746 -0.16046,-1.51139 -0.0305,-2.83095 0.13003,-1.31955 0.0581,-6.08373 -0.15972,-10.58706 -0.38948,-8.05017 -0.38396,-8.20086 0.32842,-8.95915 0.62982,-0.67041 0.69774,-1.069 0.51948,-3.04851 -0.1807,-2.00663 -0.10656,-2.42012 0.62388,-3.47953 1.32236,-1.91792 2.54157,-2.63757 4.4685,-2.63757 2.27563,0 3.98495,1.07371 4.83972,3.04008 0.35989,0.82793 1.05834,1.84621 1.5521,2.26285 l 0.89774,0.75752 -2.25261,7.88553 c -2.91449,10.2025 -4.82203,16.18818 -5.41917,17.00482 -0.5957,0.81468 -4.93454,1.29316 -5.3679,0.59197 z m 7.56676,-23.46345 c 2.0134,-1.04117 2.11603,-4.35501 0.17427,-5.6273 -2.72059,-1.7826 -6.11919,0.77304 -5.10692,3.84024 0.67719,2.0519 2.87836,2.84937 4.93265,1.78706 z M 39.092125,122.54438 c -0.492975,-0.594 -3.33126,-19.75373 -3.039075,-20.51515 0.35115,-0.91508 1.328649,-0.65497 2.630057,0.69986 1.930928,2.01019 3.627911,2.70965 6.680031,2.75336 2.427053,0.0348 2.649589,-0.0213 2.649589,-0.66761 0,-0.63064 -0.299628,-0.72608 -2.822222,-0.89888 -1.552222,-0.10633 -3.153414,-0.37582 -3.558205,-0.59886 -1.358883,-0.74874 -3.279404,-3.21142 -3.688113,-4.729245 -1.039729,-3.861263 0.92417,-7.244207 5.153377,-8.877033 1.711347,-0.660722 2.203697,-1.040962 2.700406,-2.085516 0.334105,-0.702607 0.88973,-1.36038 1.234722,-1.461718 7.167793,-2.105473 28.079627,-7.603052 28.330621,-7.447928 0.188359,0.116412 0.34247,0.609862 0.34247,1.096555 0,0.671469 0.1489,0.844445 0.617361,0.717174 0.339549,-0.09225 1.784075,-0.441412 3.210056,-0.77592 6.147054,-1.441981 11.266607,0.788553 13.848828,6.033784 0.934924,1.899103 1.130215,2.717292 1.154264,4.835887 0.04328,3.812383 -0.821101,5.952597 -3.45337,8.550604 -2.583328,2.549706 -4.671053,3.410296 -8.273066,3.410296 -2.144317,0 -2.535795,0.10459 -3.184631,0.85082 -0.634587,0.72984 -1.053616,0.85077 -2.946971,0.85049 -5.306565,-7e-4 -22.732844,0.76497 -23.37386,1.02709 -0.667643,0.27302 -0.692928,0.50435 -0.470564,4.30518 0.533596,9.12065 0.683703,8.79821 -4.044916,8.68879 -3.892036,-0.0901 -5.411331,0.52639 -7.254871,2.94367 -1.305011,1.71114 -1.854329,2.0023 -2.441918,1.2943 z m 8.622932,-21.46776 c 3.142926,-1.942436 2.966831,-6.95089 -0.30409,-8.648846 -2.500235,-1.297888 -5.576233,-0.399089 -6.811896,1.99042 -0.668361,1.292469 -0.672082,3.618636 -0.0078,4.903135 1.220568,2.360321 4.741251,3.227801 7.123829,1.755291 z m 39.538607,-1.500042 c 6.85541,-3.574514 6.816125,-13.626953 -0.06642,-16.994267 -4.740899,-2.319506 -10.457279,-0.407753 -12.741599,4.26123 -2.488414,5.086132 -0.03369,11.158635 5.31708,13.153488 1.504252,0.560811 6.104178,0.302621 7.490937,-0.420451 z m 66.479886,19.161392 c -0.64396,-0.77549 -1.82454,-1.74348 -2.62351,-2.15108 -1.29959,-0.663 -1.81083,-0.7157 -4.85162,-0.50012 -2.83686,0.20112 -3.47365,0.15096 -3.85071,-0.30337 -0.30769,-0.37074 -0.51349,-2.41339 -0.64535,-6.4053 -0.15481,-4.68657 -0.29687,-5.9006 -0.70897,-6.05874 -0.28345,-0.10877 -6.17293,-0.0168 -13.08773,0.20437 l -12.57238,0.40213 -0.64342,-0.7733 c -0.5737,-0.68951 -0.93687,-0.7639 -3.35139,-0.68644 -4.55808,0.14622 -8.08574,-1.48562 -10.23896,-4.736383 -3.247904,-4.903448 -2.789928,-11.038522 1.12428,-15.060748 3.00538,-3.088326 7.07626,-4.040256 12.40394,-2.900526 4.25903,0.911117 3.99661,0.98511 3.44362,-0.970979 -0.096,-0.339549 -0.002,-0.617361 0.20894,-0.617361 0.44196,0 27.07572,5.568132 28.01524,5.856947 0.34284,0.105394 0.84677,0.726344 1.11984,1.379889 0.40238,0.96304 0.78572,1.262197 2.02248,1.578327 2.60278,0.665302 3.41723,1.099215 4.6737,2.489977 3.19057,3.531579 2.35247,8.718547 -1.80214,11.153307 -1.47406,0.86386 -2.08542,0.98575 -5.84349,1.16504 -0.14552,0.007 -0.26458,0.33012 -0.26458,0.71818 0,0.62415 0.23403,0.70516 2.02847,0.70211 2.67434,-0.005 5.15097,-1.16775 7.02903,-3.301346 1.42309,-1.616707 2.28701,-1.858991 2.70885,-0.759682 0.20832,0.542879 -1.43959,20.203958 -1.73324,20.679088 -0.42238,0.68343 -1.44143,0.24413 -2.5609,-1.10399 z M 113.79329,99.880362 c 2.15146,-0.759076 3.95637,-2.329212 5.14572,-4.476376 0.89589,-1.617363 1.03915,-2.245268 1.03215,-4.523864 -0.01,-3.137996 -0.74052,-4.804587 -3.00379,-6.849315 -3.75589,-3.393226 -8.95968,-3.441326 -12.56706,-0.116161 -2.01731,1.859488 -2.97135,3.731824 -3.20294,6.285872 -0.61563,6.789303 6.11921,11.964962 12.59592,9.679844 z m 37.65235,-1.223606 c 2.28163,-1.391194 3.00404,-3.710454 1.91946,-6.162319 -2.18679,-4.943609 -9.56266,-3.523452 -9.57088,1.842788 -0.003,1.921481 0.77685,3.438556 2.21966,4.318289 1.4785,0.901495 3.95438,0.90206 5.43176,0.0014 z"
         id="path837"
         inkscape:connector-curvature="0" />
      <path
         style="fill:#aa180e;stroke-width:0.35277778"
         d="m 50.221702,150.95562 c 0.438824,-0.0844 1.073824,-0.0812 1.411111,0.007 0.337286,0.0883 -0.02175,0.15734 -0.797863,0.15342 -0.776111,-0.004 -1.052073,-0.0762 -0.613248,-0.16054 z m 92.666888,-2.2545 c -0.13166,-0.21303 -0.133,-1.46697 -0.003,-2.78653 0.13003,-1.31955 0.0581,-6.08373 -0.15973,-10.58706 -0.38947,-8.05017 -0.38395,-8.20086 0.32842,-8.95915 0.62983,-0.67041 0.69775,-1.069 0.51949,-3.04851 -0.18071,-2.00663 -0.10657,-2.42012 0.62387,-3.47953 1.32236,-1.91792 2.54158,-2.63757 4.46851,-2.63757 2.35582,0 4.00824,1.07907 4.93873,3.22511 0.39899,0.92019 1.05303,1.87286 1.45343,2.11704 0.42156,0.25708 0.70778,0.77682 0.67996,1.23472 l -0.048,0.79076 -0.15281,-0.79317 c -0.0917,-0.4759 -0.49598,-0.8793 -1.01075,-1.0085 -0.56754,-0.14244 -1.0772,-0.70983 -1.50571,-1.67627 -0.35627,-0.80352 -0.94713,-1.69907 -1.31303,-1.99012 -0.5328,-0.42379 -0.51094,-0.32887 0.10979,0.47677 2.28864,2.97038 0.46882,6.95801 -3.15764,6.91906 -1.47948,-0.0159 -2.6022,-0.64001 -3.51058,-1.95156 l -0.71653,-1.03454 0.21399,0.96476 c 0.15972,0.7201 0.0118,1.16695 -0.58323,1.76199 -0.79312,0.79311 -0.79722,0.85297 -0.79912,11.64682 -10e-4,6.90054 0.1265,10.90375 0.35087,10.99836 0.19403,0.0818 0.16371,0.16129 -0.0674,0.1766 -0.23109,0.0153 -0.52788,-0.14645 -0.65954,-0.35948 z m 7.59422,-23.41903 c 2.0134,-1.04117 2.11603,-4.35501 0.17427,-5.6273 -2.72059,-1.7826 -6.11919,0.77304 -5.10692,3.84024 0.67719,2.0519 2.87836,2.84937 4.93265,1.78706 z m -5.34239,-5.01513 c 0.23145,-0.42661 0.77242,-1.02192 1.20214,-1.32291 0.42973,-0.30099 0.61493,-0.54726 0.41155,-0.54726 -0.98411,0 -2.62939,2.63999 -2.56887,4.12195 0.037,0.90611 0.0623,0.88491 0.28746,-0.2414 0.13579,-0.67909 0.43626,-1.58376 0.66772,-2.01038 z m 3.32578,-2.10381 c -0.24254,-0.0979 -0.63941,-0.0979 -0.88194,0 -0.24254,0.0979 -0.0441,0.17794 0.44097,0.17794 0.48507,0 0.6835,-0.0801 0.44097,-0.17794 z m 1.58015,0.0205 c -0.11722,-0.11723 -0.4215,-0.12976 -0.67616,-0.0278 -0.28142,0.11262 -0.19783,0.19621 0.21314,0.21314 0.37188,0.0153 0.58025,-0.0681 0.46302,-0.18529 z m -5.2802,30.6553 c 0.43882,-0.0844 1.07382,-0.0812 1.41111,0.007 0.33728,0.0883 -0.0218,0.15734 -0.79787,0.15342 -0.77611,-0.004 -1.05207,-0.0762 -0.61324,-0.16054 z m -91.423798,-2.63477 c -0.112054,-1.22705 -0.303112,-5.59772 -0.424573,-9.7126 -0.220356,-7.46526 -0.222749,-7.48286 -1.094952,-8.05435 -0.810733,-0.53121 -0.858428,-0.71775 -0.657779,-2.57256 0.118985,-1.09991 0.09339,-2.1831 -0.05688,-2.40711 -0.15027,-0.22401 -0.273217,0.36825 -0.273217,1.31613 0,1.47608 -0.16552,1.88894 -1.153312,2.87673 -0.989703,0.9897 -1.39929,1.15331 -2.887253,1.15331 -1.436076,0 -1.91897,-0.17727 -2.811045,-1.03193 -2.051999,-1.96594 -1.692731,-5.05744 0.761637,-6.55389 1.226336,-0.7477 1.087507,-0.97845 -0.180418,-0.29988 -1.080618,0.57833 -1.900149,1.6902 -2.349641,3.18779 -0.274052,0.91307 -0.619524,1.33254 -1.162178,1.41111 -0.471293,0.0682 -0.867234,0.45548 -1.01608,0.99375 -0.207849,0.75164 -0.249076,0.77376 -0.279045,0.14968 -0.01934,-0.40273 0.348278,-1.09248 0.816932,-1.53276 0.468653,-0.44027 0.955458,-1.21232 1.081789,-1.71566 1.133533,-4.51636 7.247331,-5.3248 9.636505,-1.27426 0.662872,1.12382 0.77894,1.72302 0.636639,3.28665 -0.148344,1.63003 -0.05442,2.05441 0.636394,2.8754 0.78962,0.93841 0.815331,1.20628 1.001558,10.43495 0.105123,5.20951 0.143325,9.52328 0.08489,9.58617 -0.05843,0.0629 -0.197919,-0.88961 -0.309974,-2.11667 z m -4.500683,-18.82109 c 2.054043,-1.72837 1.616776,-4.63576 -0.852372,-5.66744 -1.029813,-0.43028 -1.383067,-0.4343 -2.35782,-0.0268 -1.602731,0.66995 -2.188825,1.51038 -2.188825,3.13866 0,1.13654 0.217054,1.59659 1.144075,2.42488 1.433617,1.28094 2.836782,1.32406 4.254942,0.13075 z m 1.254207,-5.50721 c -0.691409,-0.77599 -2.91497,-1.88292 -3.203249,-1.59464 -0.08904,0.089 0.38517,0.34244 1.053806,0.56311 0.668636,0.22067 1.497627,0.71275 1.842202,1.0935 0.344575,0.38075 0.705875,0.69227 0.802889,0.69227 0.09701,0 -0.126028,-0.33941 -0.495648,-0.75424 z m -5.011204,19.91007 c -0.522037,-1.70095 -0.269384,-1.9536 0.282222,-0.28222 0.232703,0.7051 0.354494,1.3506 0.270646,1.43445 -0.08385,0.0839 -0.332639,-0.43465 -0.552868,-1.15223 z m 105.792978,-1.86972 c -0.0107,-0.29104 0.13449,-0.76729 0.32258,-1.05833 0.41674,-0.64487 0.41674,-0.0879 0,0.88194 -0.19991,0.46523 -0.30979,0.52531 -0.32258,0.17639 z M 43.467322,137.2297 c -0.312299,-0.91655 -0.506758,-1.72751 -0.432132,-1.80213 0.07463,-0.0746 0.391201,0.61421 0.703499,1.53075 0.312298,0.91655 0.506757,1.72751 0.432131,1.80213 -0.07463,0.0746 -0.3912,-0.61421 -0.703498,-1.53075 z m 108.819088,-2.10536 c 0.0169,-0.41097 0.10052,-0.49456 0.21314,-0.21314 0.1019,0.25466 0.0894,0.55893 -0.0278,0.67616 -0.11722,0.11722 -0.2006,-0.0911 -0.18528,-0.46302 z M 41.878314,132.82148 c -0.217336,-0.62345 -0.333421,-1.19529 -0.257965,-1.27074 0.07546,-0.0754 0.315011,0.37291 0.532348,0.99636 0.217336,0.62345 0.33342,1.19528 0.257965,1.27073 -0.07546,0.0755 -0.315012,-0.3729 -0.532348,-0.99635 z m 111.113656,-0.16659 c 0.0169,-0.41097 0.10052,-0.49456 0.21313,-0.21314 0.10191,0.25466 0.0894,0.55893 -0.0278,0.67616 -0.11723,0.11723 -0.20061,-0.0911 -0.18529,-0.46302 z m 0.37451,-1.20532 c 0,-0.29105 0.13644,-0.84667 0.30319,-1.23473 0.19111,-0.44472 0.30319,-0.50993 0.30319,-0.17639 0,0.29105 -0.13643,0.84667 -0.30319,1.23473 -0.1911,0.44472 -0.30319,0.50993 -0.30319,0.17639 z M 39.092125,122.54438 c -0.492975,-0.594 -3.33126,-19.75373 -3.039075,-20.51515 0.35115,-0.91508 1.328649,-0.65497 2.630057,0.69986 1.930928,2.01019 3.627911,2.70965 6.680031,2.75336 2.427053,0.0348 2.649589,-0.0213 2.649589,-0.66761 0,-0.63064 -0.299628,-0.72608 -2.822222,-0.89888 -1.552222,-0.10633 -3.153414,-0.37582 -3.558205,-0.59886 -1.358883,-0.74874 -3.279404,-3.21142 -3.688113,-4.729245 -1.039729,-3.861263 0.92417,-7.244207 5.153377,-8.877033 1.711347,-0.660722 2.203697,-1.040962 2.700406,-2.085516 0.334105,-0.702607 0.88973,-1.36038 1.234722,-1.461718 7.167793,-2.105473 28.079627,-7.603052 28.330621,-7.447928 0.188359,0.116412 0.34247,0.609862 0.34247,1.096555 0,0.671469 0.1489,0.844445 0.617361,0.717174 0.339549,-0.09225 1.784075,-0.441412 3.210056,-0.77592 6.147054,-1.441981 11.266607,0.788553 13.848828,6.033784 0.934924,1.899103 1.130215,2.717292 1.154264,4.835887 0.04328,3.812383 -0.821101,5.952597 -3.45337,8.550604 -2.592624,2.558876 -4.66767,3.410296 -8.311416,3.410296 -2.135368,0 -2.557082,0.10547 -3.010578,0.75293 l -0.527367,0.75292 v -0.76323 c 0,-1.09729 0.50468,-1.28028 3.686394,-1.33663 2.429308,-0.043 3.153512,-0.21032 5.00804,-1.15687 4.758725,-2.428873 7.112864,-7.775935 5.645605,-12.823127 -1.587521,-5.460884 -7.305315,-8.914582 -12.805664,-7.734957 -4.462879,0.957126 -5.079132,1.051387 -5.590589,0.855123 -0.291444,-0.111837 -0.529897,-0.506881 -0.529897,-0.877874 0,-0.760243 0.40029,-0.814073 -5.644445,0.759047 -8.809689,2.292691 -18.588515,5.048951 -19.402273,5.468725 l -0.881439,0.454688 0.925425,0.421652 c 1.453024,0.662042 4.224412,4.229241 3.285735,4.229241 -0.108654,0 -0.92529,-0.555669 -1.814746,-1.234819 -0.889457,-0.679151 -2.24714,-1.404446 -3.017074,-1.611768 -1.223348,-0.329413 -1.494978,-0.288133 -2.154004,0.32735 -0.414768,0.387365 -1.663101,1.043256 -2.774073,1.457537 -5.008416,1.867636 -6.381923,7.300106 -2.761156,10.920872 1.484893,1.48489 3.743038,2.18791 6.052765,1.88438 1.058026,-0.13904 1.392857,-0.013 1.993094,0.75005 l 0.721436,0.91715 5.591627,-0.13758 c 3.748756,-0.0923 4.428953,-0.064 2.06385,0.0856 -1.940278,0.12275 -3.686528,0.32698 -3.880556,0.45384 -0.224162,0.14656 -0.267105,1.68995 -0.117786,4.23333 0.534406,9.10269 0.68291,8.78421 -4.044916,8.6748 -3.892036,-0.0901 -5.411331,0.52639 -7.254871,2.94367 -1.305011,1.71114 -1.854329,2.0023 -2.441918,1.2943 z m 0.983102,-0.6925 c 0,-0.82435 2.544651,-3.42856 4.073166,-4.1685 1.567628,-0.75887 2.038959,-0.80204 6.490578,-0.59443 l 1.567909,0.0731 -0.100105,-5.11175 c -0.05506,-2.81145 -0.171559,-5.22735 -0.25889,-5.36865 -0.08733,-0.14131 -2.176592,-0.22227 -4.642803,-0.17993 -5.132575,0.0881 -6.679337,-0.37795 -9.019073,-2.71769 -1.347345,-1.34734 -2.185002,-1.38211 -1.860934,-0.0772 0.103164,0.4154 0.515308,3.05714 0.915875,5.87054 0.879013,6.1738 1.794351,12.00109 1.984542,12.63417 0.157228,0.52335 0.849735,0.23027 0.849735,-0.35963 z m 113.658323,-3.10485 c -0.64396,-0.78047 -1.82454,-1.75254 -2.62351,-2.16014 -1.29959,-0.663 -1.81083,-0.7157 -4.85162,-0.50012 -2.81887,0.19985 -3.47498,0.14935 -3.84449,-0.29587 -0.29633,-0.35707 -0.52415,-2.52102 -0.68031,-6.462 l -0.23478,-5.92517 -2.64583,-0.20102 c -2.2969,-0.17452 -2.05164,-0.20941 1.85964,-0.26459 4.43646,-0.0626 4.51164,-0.0771 4.90732,-0.9455 0.35604,-0.78141 0.61785,-0.88194 2.29682,-0.88194 3.26027,0 5.62361,-1.399701 6.85001,-4.056947 1.81289,-3.928022 -0.5284,-8.240442 -4.97768,-9.168365 -0.6791,-0.141629 -1.72297,-0.623957 -2.31972,-1.071838 -1.0755,-0.80721 -1.09709,-0.808755 -2.46944,-0.176666 -0.76145,0.350715 -2.20618,1.434181 -3.2105,2.407702 -1.00433,0.97352 -1.90418,1.691908 -1.99967,1.596417 -0.35679,-0.356791 0.60569,-2.44572 1.62628,-3.529607 0.58154,-0.617602 1.51275,-1.311549 2.06936,-1.542104 1.35861,-0.562756 1.27431,-0.937357 -0.3109,-1.381398 -1.63982,-0.459342 -22.82672,-4.949418 -23.35435,-4.949418 -0.23099,0 -0.29693,0.344492 -0.1659,0.866592 0.18032,0.718449 0.0643,0.905047 -0.67878,1.091545 -0.49296,0.123724 -1.04836,0.130963 -1.23423,0.01609 -0.58669,-0.362595 -5.81341,-1.268545 -7.319,-1.268609 -3.6745,-1.53e-4 -7.67623,2.393401 -9.49645,5.680119 -0.964014,1.740685 -1.054615,2.192881 -1.053062,5.255932 0.0014,2.947457 0.114621,3.563985 0.938632,5.115279 1.12376,2.115577 2.73227,3.704121 4.8805,4.819896 1.29014,0.67009 2.21528,0.83924 4.93889,0.90297 1.84327,0.0431 3.47438,0.0828 3.62471,0.0882 0.15032,0.005 0.4242,0.40664 0.60863,0.89171 0.30808,0.81031 0.52942,0.88746 2.72529,0.94992 l 2.38998,0.068 -2.29198,0.12751 c -2.03669,0.11331 -2.36377,0.0389 -2.93648,-0.66841 -0.58093,-0.71741 -0.91159,-0.78735 -3.35246,-0.70905 -4.55808,0.14622 -8.08574,-1.48562 -10.23896,-4.736379 -3.247904,-4.90345 -2.789928,-11.038524 1.12428,-15.060749 3.00538,-3.088326 7.07626,-4.040256 12.40394,-2.900527 4.25903,0.911118 3.99661,0.98511 3.44362,-0.970979 -0.096,-0.339548 -0.002,-0.617361 0.20894,-0.617361 0.44196,0 27.07572,5.568133 28.01524,5.856948 0.34284,0.105393 0.84677,0.726343 1.11984,1.379889 0.40238,0.963039 0.78572,1.262196 2.02248,1.578326 2.60278,0.665303 3.41723,1.099215 4.6737,2.489978 3.19057,3.531578 2.35247,8.718548 -1.80214,11.153304 -1.47406,0.86386 -2.08542,0.98575 -5.84349,1.16504 -0.14552,0.007 -0.26458,0.33012 -0.26458,0.71818 0,0.62415 0.23403,0.70516 2.02847,0.70211 2.67434,-0.005 5.15097,-1.16775 7.02903,-3.301342 0.99719,-1.132872 1.62346,-1.57449 2.01808,-1.423063 0.62477,0.239751 1.09611,1.605245 0.80477,2.331465 -0.10064,0.25086 -0.19552,0.10829 -0.21083,-0.31682 -0.0488,-1.354097 -0.65912,-1.232177 -2.2,0.43948 -2.4205,2.62593 -3.64951,3.09082 -8.76397,3.31508 l -4.40972,0.19337 0.12258,5.29166 c 0.0674,2.91042 0.18694,5.39631 0.26559,5.5242 0.0787,0.12789 1.05537,0.0145 2.17048,-0.25202 1.11511,-0.2665 2.50371,-0.48671 3.0858,-0.48936 2.23918,-0.0102 6.14024,2.51962 6.90461,4.4776 0.41045,1.0514 0.9487,1.00772 1.14062,-0.0926 0.14159,-0.81173 0.15099,-0.80431 0.11163,0.0882 -0.068,1.54129 -1.23261,1.42471 -2.62493,-0.26276 z m 2.86406,-2.81969 c 0,-1.06715 0.0661,-1.50371 0.14696,-0.97013 0.0808,0.53357 0.0808,1.4067 0,1.94027 -0.0808,0.53358 -0.14696,0.097 -0.14696,-0.97014 z m 0.34796,-4.05694 c 0.003,-0.97014 0.0712,-1.32514 0.15225,-0.7889 0.0811,0.53624 0.0789,1.32999 -0.005,1.76389 -0.0837,0.43389 -0.15008,-0.005 -0.14743,-0.97499 z m 0.35278,-4.23333 c 0.003,-0.97014 0.0712,-1.32515 0.15225,-0.7889 0.0811,0.53624 0.0789,1.32999 -0.005,1.76389 -0.0837,0.43389 -0.15008,-0.005 -0.14743,-0.97499 z m 0.35759,-4.40973 c 0,-1.06715 0.0661,-1.50371 0.14696,-0.97013 0.0808,0.53357 0.0808,1.4067 0,1.94027 -0.0808,0.53358 -0.14696,0.097 -0.14696,-0.97014 z m -92.092518,1.15181 c 0.921632,-0.0727 2.429757,-0.0727 3.351389,0 0.921632,0.0727 0.167569,0.13213 -1.675695,0.13213 -1.843264,0 -2.597326,-0.0595 -1.675694,-0.13213 z m 10.940962,-0.34662 c 0.536243,-0.0811 1.329993,-0.0789 1.763889,0.005 0.433895,0.0837 -0.0048,0.15008 -0.97499,0.14743 -0.970139,-0.003 -1.325143,-0.0712 -0.788899,-0.15225 z m 49.396916,-0.71349 c 1.12275,-0.0702 2.869,-0.0696 3.88056,0.001 1.01156,0.071 0.093,0.12847 -2.04135,0.12767 -2.13431,-7e-4 -2.96195,-0.0589 -1.83921,-0.12912 z m -83.632436,-1.38395 c -1.796339,-0.88538 -2.678209,-2.40189 -2.829843,-4.866349 -0.109936,-1.786749 0.0025,-2.32838 0.694695,-3.347323 1.674965,-2.465534 5.042402,-3.358972 7.604311,-2.017555 3.902711,2.043462 3.949031,8.147881 0.07681,10.123337 -1.643318,0.83836 -3.972025,0.88366 -5.545978,0.10789 z m 5.446193,-0.85847 c 3.142926,-1.942436 2.966831,-6.95089 -0.30409,-8.648846 -2.500235,-1.297888 -5.576233,-0.399089 -6.811896,1.99042 -0.668361,1.292469 -0.672082,3.618636 -0.0078,4.903135 1.220568,2.360321 4.741251,3.227801 7.123829,1.755291 z m 30.989337,-0.82795 c -3.163136,-1.533449 -4.805507,-3.516296 -5.653193,-6.825145 -2.37568,-9.27318 8.73543,-16.362188 16.274503,-10.38331 1.714669,1.359821 2.891342,3.279116 3.523756,5.747669 1.185527,4.62756 -1.132713,9.312858 -5.678399,11.476376 -2.47632,1.17861 -6.01678,1.17209 -8.466667,-0.0156 z m 8.54927,-0.672092 c 6.85541,-3.574514 6.816125,-13.626953 -0.06642,-16.994267 -4.740899,-2.319506 -10.457279,-0.407753 -12.741599,4.26123 -2.488414,5.086132 -0.03369,11.158635 5.31708,13.153488 1.504252,0.560811 6.104178,0.302621 7.490937,-0.420451 z m 20.097236,1.046712 c -5.51632,-2.055957 -8.222994,-7.639981 -6.35945,-13.119907 0.89068,-2.619156 3.9786,-5.565927 6.6447,-6.340983 8.08775,-2.351172 15.45949,5.487621 12.52679,13.320462 -1.49631,3.996467 -4.66865,6.298008 -8.97929,6.514488 -1.57788,0.0793 -2.98493,-0.0581 -3.83275,-0.37406 z m 6.44239,-0.742928 c 2.15146,-0.759076 3.95637,-2.329212 5.14572,-4.476376 0.89589,-1.617363 1.03915,-2.245268 1.03215,-4.523864 -0.01,-3.137996 -0.74052,-4.804587 -3.00379,-6.849315 -3.75589,-3.393226 -8.95968,-3.441326 -12.56706,-0.116161 -2.01731,1.859488 -2.97135,3.731824 -3.20294,6.285872 -0.61563,6.789303 6.11921,11.964962 12.59592,9.679844 z m 33.65503,0.174738 c -4.65689,-1.052044 -5.92975,-7.276799 -2.10101,-10.274776 0.72047,-0.56414 1.64204,-0.848117 3.09291,-0.953064 1.78292,-0.128965 2.2582,-0.02273 3.46183,0.773794 5.34145,3.534806 1.79249,11.865136 -4.45373,10.454046 z m 3.99732,-1.398344 c 2.28163,-1.391194 3.00404,-3.710454 1.91946,-6.162319 -2.18679,-4.943609 -9.56266,-3.523452 -9.57088,1.842788 -0.003,1.921481 0.77685,3.438556 2.21966,4.318289 1.4785,0.901495 3.95438,0.90206 5.43176,0.0014 z M 71.825227,81.934445 c 0,-0.478193 0.711363,-0.9321 1.460783,-0.9321 0.493546,0 0.03157,0.637258 -0.774873,1.068848 -0.530539,0.283935 -0.68591,0.252958 -0.68591,-0.136748 z"
         id="path835"
         inkscape:connector-curvature="0" />
    </g>
  </g>
</svg>
